<?xml version="1.0" standalone="no"?>
<!DOCTYPE svg PUBLIC "-//W3C//DTD SVG 20010904//EN"
 "http://www.w3.org/TR/2001/REC-SVG-20010904/DTD/svg10.dtd">
<svg version="1.0" xmlns="http://www.w3.org/2000/svg"
 width="270.000000pt" height="270.000000pt" viewBox="0 0 270.000000 270.000000"
 preserveAspectRatio="xMidYMid meet">
<metadata>
Created by potrace 1.11, written by Peter Selinger 2001-2013
</metadata>
<g transform="translate(0.000000,270.000000) scale(0.100000,-0.100000)"
fill="#000000" stroke="none">
<path d="M1862 2550 c-12 -11 -22 -27 -22 -35 0 -7 -4 -15 -8 -17 -14 -5 -214
-362 -218 -388 -2 -14 -6 -45 -9 -70 -3 -25 -7 -56 -9 -70 -2 -14 -7 -50 -10
-80 -10 -92 -15 -122 -20 -127 -2 -3 0 -17 6 -33 7 -21 6 -35 -3 -52 -7 -13
-12 -26 -11 -30 1 -5 -3 -8 -8 -8 -6 0 -10 -7 -10 -15 0 -8 -4 -15 -10 -15 -5
0 -10 -5 -10 -11 0 -6 -9 -24 -21 -40 -11 -16 -17 -29 -13 -29 4 0 0 -8 -8
-17 -22 -27 -98 -160 -98 -172 0 -6 -4 -11 -9 -11 -5 0 -12 -10 -15 -22 l-7
-23 -17 24 c-9 13 -61 100 -116 194 -75 130 -96 174 -89 186 6 9 8 25 6 36 -2
11 -5 36 -7 55 -2 19 -7 53 -10 76 -4 22 -7 57 -8 77 -1 21 -4 37 -8 37 -3 0
-6 19 -6 43 -1 23 -4 54 -7 69 -5 26 -55 122 -87 168 -10 14 -18 27 -17 30 0
3 -11 23 -25 45 -13 22 -39 67 -57 100 -59 107 -67 116 -109 108 -20 -3 -45
-6 -54 -7 -10 0 -18 -5 -18 -10 0 -5 -3 -7 -6 -3 -3 3 -23 -1 -45 -8 -22 -8
-41 -14 -44 -14 -17 -1 -77 -33 -100 -52 -38 -33 -138 -138 -148 -154 -7 -13
7 -53 36 -100 6 -11 54 -94 106 -183 l94 -164 139 -106 c77 -59 149 -115 160
-124 12 -10 30 -18 42 -18 16 0 35 -24 78 -100 32 -55 58 -104 58 -109 0 -5 3
-11 8 -13 4 -1 38 -56 75 -122 56 -97 67 -123 62 -147 -4 -16 -10 -29 -14 -29
-3 0 -15 -17 -26 -37 -19 -37 -218 -382 -315 -548 -25 -44 -51 -79 -57 -78
-62 12 -66 12 -94 -17 -37 -37 -37 -72 -1 -110 16 -16 31 -27 34 -25 3 3 11
-1 18 -10 7 -8 19 -15 26 -15 8 0 14 -5 14 -11 0 -5 4 -7 10 -4 6 3 10 1 10
-4 0 -6 6 -11 14 -11 7 0 24 -8 37 -18 36 -26 73 -27 103 0 37 32 41 79 10
113 l-25 27 118 204 c145 250 130 225 181 311 23 39 42 76 42 81 0 6 6 12 14
15 10 4 24 -10 42 -41 15 -26 27 -49 25 -51 -1 -2 2 -7 7 -10 5 -3 23 -31 39
-61 17 -30 52 -90 77 -133 25 -43 46 -82 46 -87 0 -6 5 -10 10 -10 6 0 10 -6
11 -12 0 -7 14 -33 30 -58 16 -25 33 -55 38 -67 6 -12 22 -41 36 -63 26 -41
25 -57 -8 -81 -4 -3 -9 -20 -12 -37 -5 -43 41 -91 82 -87 36 3 220 111 234
137 16 29 7 71 -20 95 -19 16 -34 21 -66 18 l-42 -3 -79 136 c-43 76 -78 140
-76 145 1 4 -1 7 -6 7 -4 0 -19 21 -32 48 -14 26 -28 49 -31 52 -3 3 -21 34
-40 70 -19 36 -37 67 -40 70 -3 3 -19 30 -36 60 -48 89 -58 105 -66 111 -15
11 -15 43 -1 66 7 12 23 38 34 58 11 20 55 96 97 168 42 73 90 157 108 187 22
40 38 56 55 59 14 1 27 6 30 10 3 3 61 49 130 101 69 52 130 98 135 102 6 5
19 16 31 26 11 9 39 52 63 94 23 42 73 130 111 195 39 65 70 123 70 130 0 6 5
13 12 15 18 6 -172 195 -214 212 -19 8 -47 17 -61 20 -15 2 -30 7 -35 10 -5 3
-22 8 -38 10 -49 9 -68 14 -84 20 -9 4 -25 -2 -38 -14z m123 -76 c33 -8 66
-16 73 -16 6 -1 12 -5 12 -10 0 -4 8 -8 19 -8 21 0 161 -134 161 -154 0 -7 -8
-24 -19 -37 -10 -13 -20 -29 -22 -34 -2 -6 -42 -77 -89 -158 l-84 -148 -145
-109 c-110 -84 -147 -108 -157 -99 -10 8 -7 21 19 62 17 29 35 55 40 58 5 3 9
10 9 15 0 9 45 89 115 206 19 32 34 59 33 60 -1 3 95 167 107 183 5 6 13 21
19 35 15 32 -3 62 -32 54 -17 -5 -43 -45 -168 -267 -16 -29 -33 -54 -38 -55
-4 -2 -6 -7 -3 -12 3 -4 -2 -13 -10 -20 -8 -7 -15 -16 -15 -20 0 -5 -29 -58
-65 -119 -36 -61 -65 -114 -64 -117 0 -4 -5 -10 -12 -15 -15 -9 -42 9 -34 22
3 4 8 28 10 51 3 24 7 54 9 68 3 14 8 52 12 85 10 96 11 109 15 125 3 11 66
128 109 200 5 8 29 50 54 92 25 43 46 82 46 88 0 14 24 12 95 -6z m-1175 -30
c0 -8 5 -14 10 -14 6 0 10 -4 10 -9 0 -7 63 -121 110 -201 59 -98 82 -146 85
-181 3 -23 7 -58 10 -78 8 -61 17 -135 19 -161 1 -14 4 -29 7 -35 10 -18 4
-40 -12 -43 -10 -2 -30 23 -59 75 -24 43 -51 89 -60 103 -9 14 -31 50 -47 80
-17 30 -63 111 -103 180 -40 69 -80 139 -90 155 -19 35 -62 42 -68 12 -4 -19
48 -127 61 -127 4 0 7 -6 7 -14 0 -8 7 -22 16 -30 8 -9 13 -16 10 -16 -3 0 16
-35 41 -77 25 -43 57 -98 71 -123 14 -25 36 -63 50 -85 14 -22 26 -42 26 -45
0 -3 17 -32 37 -65 20 -33 35 -63 32 -67 -7 -14 -33 -9 -53 10 -10 9 -70 55
-133 102 -114 84 -125 98 -195 220 -11 19 -45 79 -76 133 -31 53 -59 103 -62
111 -6 16 106 133 151 157 26 14 86 32 149 45 10 2 21 5 23 8 9 9 33 -6 33
-20z m821 -858 c-23 -36 -41 -68 -41 -70 0 -3 -30 -55 -67 -118 -37 -62 -66
-116 -65 -120 1 -5 -2 -8 -6 -8 -5 0 -14 -16 -22 -35 -15 -39 -40 -55 -40 -25
0 16 51 110 231 420 18 31 32 41 42 31 5 -5 -10 -38 -32 -75z m-549 17 c12
-21 23 -41 23 -45 0 -4 6 -13 13 -19 6 -7 12 -17 12 -23 0 -5 6 -17 14 -25 7
-9 26 -41 42 -71 16 -30 31 -57 34 -60 3 -3 12 -18 20 -35 8 -16 17 -32 20
-35 9 -9 51 -84 63 -112 6 -16 15 -28 19 -28 4 0 8 -4 8 -9 0 -5 18 -39 40
-75 22 -36 40 -70 40 -76 0 -5 3 -10 8 -10 4 0 13 -15 21 -32 8 -18 20 -40 26
-48 7 -8 25 -37 40 -65 14 -27 34 -63 44 -80 10 -16 27 -46 38 -65 11 -19 38
-64 59 -100 21 -36 39 -71 40 -79 2 -8 7 -17 12 -20 5 -3 22 -31 38 -61 16
-30 35 -60 42 -68 7 -7 10 -18 7 -23 -8 -12 -35 -12 -35 1 0 5 -18 39 -40 75
-22 36 -40 67 -40 70 0 3 -18 34 -40 70 -22 36 -40 67 -40 70 0 3 -16 29 -35
60 -19 30 -40 65 -45 77 -13 31 -33 61 -45 70 -5 4 -6 8 -2 8 4 0 -6 20 -23
44 -16 25 -30 49 -30 54 0 6 -3 12 -7 14 -5 2 -17 21 -29 43 -12 22 -69 123
-129 225 -101 175 -121 210 -175 305 -12 22 -30 54 -41 71 -17 29 -17 44 2 44
4 0 18 -17 31 -37z m218 -583 c0 -6 -27 -55 -60 -111 -33 -55 -60 -103 -60
-105 0 -5 -177 -307 -188 -319 -4 -5 -9 -14 -11 -20 -1 -5 -16 -34 -33 -63
-24 -43 -33 -51 -44 -41 -12 9 -11 16 6 39 11 16 20 33 20 39 0 6 4 11 8 11 4
0 13 12 19 27 7 16 23 46 36 68 80 132 167 286 167 295 0 5 4 10 9 10 5 0 14
13 19 30 6 16 16 35 22 42 6 7 25 37 41 66 26 46 49 61 49 32z m-467 -699 c98
-54 117 -66 122 -78 2 -7 -1 -13 -8 -13 -19 1 -170 94 -175 108 -6 18 4 15 61
-17z m1097 -10 c0 -17 -172 -113 -183 -102 -6 6 0 14 14 22 13 7 30 18 37 26
7 7 19 13 25 14 7 0 28 11 47 24 37 25 60 31 60 16z"/>
</g>
</svg>
